<?xml version="1.0" encoding="UTF-8" standalone="no"?>
<svg
   width="600"
   height="600"
   viewBox="0 0 600 600"
   version="1.1"
   id="svg35987"
   xmlns="http://www.w3.org/2000/svg"
   xmlns:svg="http://www.w3.org/2000/svg">
  <defs
     id="defs35991" />
  <g
     id="g39385"
     transform="translate(12.177232,3.2347893)"
     style="fill:#188cff;fill-opacity:1">
    <path
       fill="#198cff"
       d="m 53.543575,320.75371 v -22.08895 c 28.861179,0 116.794475,0.446 152.416145,0.446 77.55782,0 155.12739,-0.446 232.68522,-0.446 28.41517,0 52.31162,-17.5937 59.52985,-44.64739 4.507,-16.68996 2.25351,-32.46444 -9.47172,-45.99715 -10.37548,-11.72521 -23.00445,-16.67822 -38.33291,-15.78621 -14.88247,1.36149 -28.40345,14.43646 -30.66868,29.31892 -1.34975,11.72523 2.26523,20.73922 12.18297,27.0537 7.20649,4.50699 15.32847,4.96474 23.45044,1.34975 2.6995,-1.34975 4.95299,-3.15724 6.7605,-5.85675 3.15723,-5.41074 9.47171,-7.21822 14.42471,-4.06098 5.41074,2.6995 7.21823,9.01398 4.51874,14.88246 -4.061,8.11023 -10.82148,13.07498 -18.94345,16.23221 -27.95744,10.82148 -59.52987,-7.21822 -64.03686,-36.98315 -3.15724,-21.64295 7.66424,-44.63566 27.05369,-55.91487 15.78621,-9.47173 32.92217,-10.36374 49.61213,-4.50699 24.80019,8.56797 40.5864,26.16167 45.99714,51.85388 3.60324,18.49744 0,36.07941 -9.02572,52.31163 -13.07498,23.45043 -33.36818,36.98316 -59.97586,41.49015 -4.50699,0.90374 -9.01398,0.90374 -13.52098,0.90374 -45.99714,0.446 -331.89773,0.446 -384.655355,0.446 z"
       id="path35983"
       style="stroke-width:11.737;fill:#188cff;fill-opacity:1" />
    <path
       fill="#198cff"
       d="M 177.4177,277.69081 H 61.303966 V 259.2051 H 262.63976 c 14.61251,0 23.83776,-6.51401 27.38232,-19.54203 2.05397,-8.16893 -0.58684,-20.10541 -6.04453,-26.73679 -4.29574,-4.99995 -12.76981,-7.82856 -21.15001,-7.39429 -6.36142,0.35211 -12.78154,6.65485 -13.52098,13.34492 -0.71595,5.01169 0.96244,8.69708 5.05864,11.44354 3.26287,1.80748 6.65486,2.07744 9.91773,0.64553 3.80278,-1.26759 7.68771,-1.26759 10.80974,1.86617 5.10557,5.75111 2.03049,13.45057 -4.92952,16.23223 -17.41765,6.65485 -37.18269,-4.65959 -39.71787,-22.94576 -2.00703,-12.99282 4.84737,-26.99501 16.52564,-34.09588 8.96704,-5.19947 23.72039,-5.77457 34.7766,-2.08917 13.80267,4.60089 23.76735,18.01623 27.48797,34.47145 2.33565,10.29331 0.3521,20.97395 -5.32858,31.29073 -7.3356,12.84024 -17.00686,18.86129 -33.37991,21.92464 -2.18308,0.44601 -4.03752,0.51643 -8.33325,0.51643 h -75.76207 l -0.55164,-0.0352 c -2.00702,-0.34037 -3.93189,-0.41079 -8.46234,-0.41079 z m 332.21463,91.16097 c 6.76049,13.53271 6.38491,26.8659 -2.05397,39.06059 -7.85202,11.27922 -18.87303,16.42001 -32.79307,15.42237 -13.63834,-1.00938 -24.94103,-12.0069 -26.92458,-25.55136 a 16.326111,16.326111 0 0 1 -0.49295,-3.06334 c -0.0587,-0.7629 -0.0587,-1.33802 -0.0587,-2.71123 l 0.0235,-0.48123 a 9.7182027,9.7182027 0 0 1 9.67125,-8.3215 c 4.84736,0 8.96704,3.50935 9.62431,8.13371 0.14085,0.72769 0.223,1.26759 0.38732,2.4765 a 14.084352,14.084352 0 0 0 0.78637,3.69714 c 2.01876,5.02342 7.41776,7.53513 13.25103,6.07974 8.21587,-1.87791 13.47403,-9.31914 12.71113,-18.08665 -0.79811,-9.92946 -8.40366,-18.46224 -18.65002,-20.43405 a 11.760433,11.760433 0 0 0 -2.30046,-0.29342 40.60988,40.60988 0 0 0 -2.73471,-0.0587 c -24.6124,0 -58.34443,0.0587 -144.75192,0.223 -86.40749,0.17605 -120.13951,0.23474 -144.75191,0.23474 h -3.38025 v -20.75094 h 294.23383 c 16.9599,0 30.09357,8.72056 38.20381,24.42462 z"
       id="path35985"
       style="stroke-width:11.737;fill:#188cff;fill-opacity:1" />
  </g>
</svg>
